<svg width="22" height="23" viewBox="0 0 22 23" fill="none" xmlns="http://www.w3.org/2000/svg">
<g clip-path="url(#clip0_85019_15478)">
<path d="M21.7857 11.7532C21.7857 11.0055 21.7251 10.2537 21.5958 9.51807H11.2202V13.754H17.1618C16.9152 15.1201 16.123 16.3286 14.963 17.0966V19.8451H18.5078C20.5893 17.9292 21.7857 15.0999 21.7857 11.7532Z" fill="#4285F4"/>
<path d="M11.22 22.5006C14.1868 22.5006 16.6887 21.5265 18.5116 19.845L14.9668 17.0965C13.9806 17.7675 12.7074 18.1474 11.2241 18.1474C8.35431 18.1474 5.92109 16.2114 5.04805 13.6084H1.39014V16.4418C3.25749 20.1563 7.06091 22.5006 11.22 22.5006Z" fill="#34A853"/>
<path d="M5.04421 13.6085C4.58343 12.2423 4.58343 10.763 5.04421 9.39684V6.56348H1.39034C-0.169827 9.67169 -0.169827 13.3336 1.39034 16.4418L5.04421 13.6085Z" fill="#FBBC04"/>
<path d="M11.22 4.85386C12.7883 4.8296 14.304 5.41972 15.4397 6.50295L18.5803 3.3624C16.5917 1.49505 13.9523 0.468406 11.22 0.500741C7.06091 0.500741 3.25749 2.84504 1.39014 6.56357L5.044 9.39694C5.91301 6.78992 8.35027 4.85386 11.22 4.85386Z" fill="#EA4335"/>
</g>
<defs>
<clipPath id="clip0_85019_15478">
<rect width="22" height="22" fill="white" transform="translate(0 0.5)"/>
</clipPath>
</defs>
</svg>
